<svg id="visual" viewBox="0 0 900 600" width="900" height="600" xmlns="http://www.w3.org/2000/svg" xmlns:xlink="http://www.w3.org/1999/xlink" version="1.1"><rect x="0" y="0" width="900" height="600" fill="#1a191a"></rect><defs><linearGradient id="grad1_0" x1="33.3%" y1="0%" x2="100%" y2="100%"><stop offset="20%" stop-color="#1a191a" stop-opacity="1"></stop><stop offset="80%" stop-color="#1a191a" stop-opacity="1"></stop></linearGradient></defs><defs><linearGradient id="grad2_0" x1="0%" y1="0%" x2="66.7%" y2="100%"><stop offset="20%" stop-color="#1a191a" stop-opacity="1"></stop><stop offset="80%" stop-color="#1a191a" stop-opacity="1"></stop></linearGradient></defs><g transform="translate(900, 0)"><path d="M0 324.5C-39.1 330.8 -78.1 337.1 -100.3 308.6C-122.4 280.1 -127.6 216.8 -129.3 178C-131 139.2 -129.1 124.8 -164.2 119.3C-199.3 113.9 -271.5 117.3 -304.3 98.9C-337.2 80.5 -330.9 40.2 -324.5 0L0 0Z" fill="#1c305a"></path></g><g transform="translate(0, 600)"><path d="M0 -324.5C33.8 -321.6 67.6 -318.7 100.3 -308.6C132.9 -298.6 164.4 -281.3 182.8 -251.6C201.2 -221.9 206.7 -179.6 200.6 -145.8C194.6 -111.9 177.2 -86.5 195.9 -63.7C214.7 -40.8 269.6 -20.4 324.5 0L0 0Z" fill="#1c305a"></path></g></svg>